<svg width="512" height="512" viewBox="0 0 512 512" fill="none" xmlns="http://www.w3.org/2000/svg">
  <defs>
    <linearGradient id="bagGrad" x1="64" y1="96" x2="448" y2="416" gradientUnits="userSpaceOnUse">
      <stop stop-color="#138484"/>
      <stop offset="1" stop-color="#0F6F6F"/>
    </linearGradient>
    <linearGradient id="chartGrad" x1="128" y1="160" x2="384" y2="384" gradientUnits="userSpaceOnUse">
      <stop stop-color="#FFFFFF" stop-opacity="0.98"/>
      <stop offset="1" stop-color="#D1FAF9" stop-opacity="0.92"/>
    </linearGradient>
    <!-- Softer, smoother shadow -->
    <filter id="softShadow" x="40" y="60" width="432" height="400" filterUnits="userSpaceOnUse">
      <feDropShadow dx="0" dy="10" stdDeviation="20" flood-color="#0F172A" flood-opacity="0.12"/>
    </filter>
  </defs>

  <rect width="512" height="512" rx="120" fill="#F8FAFC"/>

  <g filter="url(#softShadow)">
    <path d="M96 160C96 132 120 108 148 108H364C392 108 416 132 416 160V336C416 380 380 416 336 416H176C132 416 96 380 96 336V160Z" fill="url(#bagGrad)"/>
    <path d="M160 152C160 104 200 64 248 64H264C312 64 352 104 352 152V176H312V154C312 124 288 100 258 100H254C224 100 200 124 200 154V176H160V152Z" fill="#E2C4A3"/>
    <rect x="128" y="176" width="256" height="192" rx="32" fill="url(#chartGrad)"/>
  </g>

  <g opacity="0.16">
    <path d="M160 212H352" stroke="#0F6F6F" stroke-width="10" stroke-linecap="round"/>
    <path d="M160 256H352" stroke="#0F6F6F" stroke-width="10" stroke-linecap="round"/>
    <path d="M160 300H352" stroke="#0F6F6F" stroke-width="10" stroke-linecap="round"/>
  </g>

  <rect x="176" y="272" width="32" height="72" rx="10" fill="#138484"/>
  <rect x="224" y="232" width="32" height="112" rx="10" fill="#1AA3A3"/>
  <rect x="272" y="200" width="32" height="144" rx="10" fill="#33B5B5"/>
  <rect x="320" y="248" width="32" height="96" rx="10" fill="#66CCCC"/>

  <path d="M164 312L220 272L272 216L340 248" stroke="#0F6F6F" stroke-width="10" stroke-linecap="round" stroke-linejoin="round"/>

  <circle cx="220" cy="272" r="10" fill="#0F6F6F"/>
  <circle cx="272" cy="216" r="10" fill="#0F6F6F"/>
  <circle cx="340" cy="248" r="10" fill="#0F6F6F"/>
</svg>
